<?xml version="1.0" encoding="UTF-8"?>
<svg version="1.1" xmlns="http://www.w3.org/2000/svg" width="1106" height="1174">
<path d="M0 0 C364.98 0 729.96 0 1106 0 C1106 387.42 1106 774.84 1106 1174 C741.02 1174 376.04 1174 0 1174 C0 786.58 0 399.16 0 0 Z " fill="#D61027" transform="translate(0,0)"/>
<path d="M0 0 C3.82278519 1.74643294 7.39195594 3.85099298 11 6 C12.83345642 7.03046861 14.66938209 8.05655677 16.5078125 9.078125 C18.38093536 10.13412812 20.25331278 11.1914544 22.125 12.25 C23.12708496 12.8164624 24.12916992 13.3829248 25.16162109 13.96655273 C31.69963413 17.67205334 38.19693373 21.43908962 44.66235352 25.26953125 C50.09804652 28.48495718 55.57388519 31.62589208 61.0625 34.75 C68.63063094 39.05956258 76.16916188 43.41665282 83.6875 47.8125 C99.9487224 57.3182089 116.26059357 66.73553899 132.625 76.0625 C140.33641209 80.45920046 148.01921611 84.90350646 155.6875 89.375 C157.15727295 90.23170288 157.15727295 90.23170288 158.65673828 91.10571289 C160.53147027 92.20082955 162.40426047 93.29927848 164.27490234 94.40136719 C166.11702934 95.48202008 167.96658685 96.55009008 169.82275391 97.60644531 C170.71269043 98.12045898 171.60262695 98.63447266 172.51953125 99.1640625 C173.31077393 99.61475098 174.1020166 100.06543945 174.91723633 100.52978516 C177.34975654 102.24689179 178.50730434 103.40147855 180 106 C180.29129026 108.84018648 180.4092904 111.45970034 180.38768005 114.29916382 C180.39575836 115.56588328 180.39575836 115.56588328 180.40399987 116.85819304 C180.41832608 119.69255617 180.41116423 122.52645534 180.40405273 125.36083984 C180.40975391 127.39108151 180.41671718 129.42131997 180.42485046 131.45155334 C180.44282606 136.97018443 180.44160507 142.48865689 180.43590808 148.00730848 C180.43282223 152.61226859 180.43890203 157.21719795 180.44494683 161.82215369 C180.45900524 172.68549814 180.45742014 183.54876398 180.44604492 194.41210938 C180.43456531 205.62294653 180.44863385 216.83354441 180.4754414 228.04435003 C180.49758765 237.6656934 180.5042381 247.2869616 180.49836498 256.90832865 C180.49499129 262.65638558 180.49743778 268.40428915 180.51461601 274.15232468 C180.53006559 279.55814894 180.52615149 284.96361849 180.50731087 290.36942863 C180.50361933 292.35358168 180.50674983 294.3377609 180.51719666 296.32188988 C180.53036977 299.03062673 180.51889179 301.73818298 180.50120544 304.4468689 C180.51081045 305.23208967 180.52041546 306.01731044 180.53031152 306.82632577 C180.46038465 312.03144439 179.2766451 314.98083987 176 319 C174.10327148 320.51635742 174.10327148 320.51635742 172.12109375 321.60546875 C171.37512939 322.02546143 170.62916504 322.4454541 169.8605957 322.87817383 C169.06097412 323.31025146 168.26135254 323.7423291 167.4375 324.1875 C165.71074465 325.15330112 163.9841874 326.11945649 162.2578125 327.0859375 C161.37899414 327.5715918 160.50017578 328.05724609 159.59472656 328.55761719 C155.6371655 330.75758621 151.72589106 333.03519232 147.8125 335.3125 C146.22402372 336.23188382 144.63548039 337.15115179 143.046875 338.0703125 C139.5111605 340.12002229 135.98071818 342.1785333 132.453125 344.2421875 C120.53474723 351.21416342 108.57896014 358.11654726 96.58447266 364.95654297 C84.36384631 371.92637227 72.1793015 378.95823148 60 386 C58.33203977 386.96355641 56.66407161 387.92709911 54.99609375 388.890625 C47.30102943 393.33860658 39.6171057 397.80491308 31.94604492 402.29418945 C28.86831574 404.092389 25.78605674 405.88261348 22.703125 407.671875 C19.19198313 409.71128076 15.70247911 411.77896127 12.234375 413.890625 C10.8438345 414.71889187 9.453216 415.54702784 8.0625 416.375 C7.46735596 416.75027832 6.87221191 417.12555664 6.2590332 417.51220703 C1.47960152 420.31583344 -2.62998718 421.17977166 -8 420 C-12.53710263 418.02362065 -16.71739906 415.50498968 -20.9375 412.9375 C-22.17510414 412.20449039 -23.41389712 411.47348466 -24.65380859 410.74438477 C-27.20126477 409.24351732 -29.74267936 407.73313881 -32.27978516 406.21484375 C-37.85425852 402.88557169 -43.49327663 399.66859108 -49.125 396.4375 C-51.27389021 395.19739872 -53.42232774 393.95651269 -55.5703125 392.71484375 C-62.04510022 388.97348344 -68.52236343 385.23642517 -75 381.5 C-77.1666775 380.25001878 -79.33334417 379.00001879 -81.5 377.75 C-82.5725 377.13125 -83.645 376.5125 -84.75 375.875 C-88 374 -91.25 372.125 -94.5 370.25 C-95.57266113 369.63116943 -96.64532227 369.01233887 -97.75048828 368.37475586 C-99.91557071 367.12564482 -102.08060982 365.87645871 -104.24560547 364.62719727 C-109.68615706 361.48797691 -115.12747216 358.35009437 -120.5703125 355.21484375 C-132.20312429 348.51215722 -143.83084325 341.80130298 -155.40966797 335.00561523 C-160.10783717 332.25117679 -164.81853165 329.53073839 -169.58203125 326.890625 C-170.45609619 326.40110352 -171.33016113 325.91158203 -172.23071289 325.40722656 C-173.85223182 324.50147648 -175.47993373 323.60666315 -177.11499023 322.72558594 C-177.83501221 322.32114258 -178.55503418 321.91669922 -179.296875 321.5 C-179.91916992 321.1596875 -180.54146484 320.819375 -181.18261719 320.46875 C-185.10888015 317.29567128 -186.86396001 314.05204872 -187.50895119 309.06408787 C-187.53339107 307.5445895 -187.53613239 306.02464356 -187.52139282 304.50502014 C-187.53286946 303.24292108 -187.53286946 303.24292108 -187.54457796 301.95532507 C-187.56517322 299.14321907 -187.55726691 296.33193475 -187.54931641 293.51977539 C-187.558013 291.50070949 -187.56838008 289.4816502 -187.58029175 287.46260071 C-187.60706843 281.98324749 -187.60822963 276.50417019 -187.60316515 271.0247643 C-187.60102563 266.44961115 -187.61079262 261.87451381 -187.62037599 257.29937261 C-187.64256488 246.50593575 -187.64344173 235.71263809 -187.63134766 224.91918945 C-187.61926415 213.78547665 -187.64390001 202.65226909 -187.68648779 191.51864249 C-187.72171527 181.95752428 -187.73372334 172.39656694 -187.72721231 162.83538622 C-187.72358575 157.12581071 -187.72886724 151.41659567 -187.75664139 145.70707893 C-187.78178233 140.33801618 -187.77792626 134.96974141 -187.75181961 129.60069084 C-187.74708548 127.63146575 -187.75256706 125.66218534 -187.76906586 123.69302368 C-187.78998724 121.00175612 -187.77382042 118.31313626 -187.7484436 115.6219635 C-187.77056646 114.45638439 -187.77056646 114.45638439 -187.79313624 113.26725823 C-187.68794775 107.95556225 -186.17632319 105.25830663 -182.53962648 101.40954679 C-180.44010877 99.48741276 -178.29876662 98.08574261 -175.7890625 96.74609375 C-174.80429932 96.20927979 -173.81953613 95.67246582 -172.80493164 95.11938477 C-171.23086548 94.28685181 -171.23086548 94.28685181 -169.625 93.4375 C-167.36480623 92.20771051 -165.10571784 90.9758876 -162.84765625 89.7421875 C-161.70312988 89.12053711 -160.55860352 88.49888672 -159.37939453 87.85839844 C-154.21832753 85.02022173 -149.13910627 82.04839059 -144.0625 79.0625 C-142.07181546 77.89549062 -140.08092819 76.72882697 -138.08984375 75.5625 C-137.0932373 74.97855469 -136.09663086 74.39460938 -135.06982422 73.79296875 C-129.7667275 70.69562962 -124.44605065 67.62886142 -119.125 64.5625 C-118.04484619 63.93996338 -116.96469238 63.31742676 -115.85180664 62.67602539 C-113.66203666 61.41423174 -111.47217645 60.15259466 -109.28222656 58.89111328 C-103.85340058 55.76319852 -98.42680719 52.63141552 -93 49.5 C-90.83334417 48.24998121 -88.6666775 46.99998122 -86.5 45.75 C-85.4275 45.13125 -84.355 44.5125 -83.25 43.875 C-80 42 -76.75 40.125 -73.5 38.25 C-72.42709717 37.6310083 -71.35419434 37.0120166 -70.2487793 36.37426758 C-68.08621417 35.1266526 -65.92361661 33.87909384 -63.76098633 32.6315918 C-57.16994272 28.8294676 -50.57993755 25.02555492 -43.99145508 21.21899414 C-41.80889987 19.95958576 -39.62516363 18.70222166 -37.44018555 17.44702148 C-32.25188796 14.46570108 -27.08137657 11.46118928 -21.9453125 8.390625 C-20.51699097 7.54697388 -20.51699097 7.54697388 -19.05981445 6.6862793 C-17.28540623 5.63752882 -15.5177361 4.57725413 -13.75854492 3.50317383 C-9.01279879 0.71841585 -5.62227024 -1.07816016 0 0 Z " fill="#FEFCFC" transform="translate(556,371)"/>
<path d="M0 0 C3.71229983 1.48491993 6.90600693 2.96807308 10.359375 4.90625 C11.38345459 5.47980225 12.40753418 6.05335449 13.46264648 6.64428711 C14.54747314 7.25667236 15.6322998 7.86905762 16.75 8.5 C17.87672119 9.13365479 19.00344238 9.76730957 20.16430664 10.42016602 C26.95517743 14.25000564 33.70984746 18.13335601 40.4152832 22.1105957 C46.72724525 25.85304663 53.07941601 29.52403479 59.4375 33.1875 C60.54472412 33.82550537 61.65194824 34.46351074 62.79272461 35.12084961 C65.06337068 36.42889477 67.33412358 37.73675448 69.60498047 39.04443359 C76.1519012 42.81552773 82.69531065 46.59271076 89.23901367 50.36938477 C94.70421293 53.52319079 100.17091028 56.67434329 105.640625 59.8203125 C106.74792969 60.45775391 107.85523438 61.09519531 108.99609375 61.75195312 C111.04498654 62.9313578 113.09439311 64.10987081 115.14453125 65.28710938 C117.1262431 66.42837486 119.08407424 67.61198653 121.01750183 68.83326721 C124.0523067 70.63016151 127.04851651 71.70696807 130.40180969 72.78440857 C137.10496662 75.28217326 142.68491012 78.13914358 147 84 C151.56727777 95.55396711 149.82617143 110.1313371 149.52705073 122.2754848 C149.42238807 127.37866201 149.43648484 132.4816514 149.43519592 137.58570862 C149.41579625 146.14721877 149.31290504 154.70440119 149.15405273 163.2644043 C148.97100293 173.15543903 148.89577493 183.04251735 148.8833093 192.93514866 C148.86958336 203.48572059 148.78718913 214.03486364 148.67938161 224.58485532 C148.65236341 227.61888645 148.63709163 230.65279798 148.62400627 233.68691826 C148.59937471 238.4530586 148.52797336 243.21633449 148.42042351 247.98130226 C148.38778377 249.72819712 148.37022616 251.47544934 148.36893082 253.22264862 C148.3437975 266.40164093 148.3437975 266.40164093 145.05447578 270.31407356 C142.74527612 271.88811298 140.58630243 272.95939312 138 274 C136.58439015 274.79076397 135.17651395 275.59574099 133.78125 276.421875 C132.35593218 277.20115454 130.92878814 277.97710159 129.5 278.75 C123.65426862 281.9555681 117.85666109 285.21963136 112.125 288.625 C104.61021091 293.08406854 97.02990953 297.4249383 89.4375 301.75 C79.61853459 307.34466038 69.83586321 312.99624356 60.08422852 318.70776367 C51.79127702 323.55703773 43.45070301 328.32053723 35.10140991 333.07177734 C25.83684893 338.34608538 16.63362 343.71704608 7.48583984 349.19165039 C6.64102051 349.69559326 5.79620117 350.19953613 4.92578125 350.71875 C4.18755127 351.16154297 3.44932129 351.60433594 2.6887207 352.06054688 C1 353 1 353 0 353 C0 236.51 0 120.02 0 0 Z " fill="#D60F26" transform="translate(565,405)"/>
<path d="M0 0 C48.84 0 97.68 0 148 0 C148 54.45 148 108.9 148 165 C144.635399 163.6541596 141.84113133 162.44327177 138.76171875 160.671875 C137.95412109 160.20910156 137.14652344 159.74632812 136.31445312 159.26953125 C135.44755859 158.76808594 134.58066406 158.26664063 133.6875 157.75 C132.31174805 156.95916016 132.31174805 156.95916016 130.90820312 156.15234375 C122.90054484 151.5410557 114.92245029 146.87893887 106.94604492 142.21386719 C100.48509185 138.4382753 94.00333957 134.70205327 87.5 131 C78.94509708 126.1300857 70.43840165 121.18108296 61.94140625 116.2109375 C55.48182746 112.43661476 49.00164543 108.70133677 42.5 105 C34.70591954 100.56048577 26.93816551 96.07740479 19.1875 91.5625 C18.19105469 90.98306641 17.19460938 90.40363281 16.16796875 89.80664062 C14.74484375 88.97616211 14.74484375 88.97616211 13.29296875 88.12890625 C12.4630542 87.64494385 11.63313965 87.16098145 10.77807617 86.66235352 C9.86131104 86.11377686 8.9445459 85.5652002 8 85 C6.96928879 84.66575264 6.96928879 84.66575264 5.91775513 84.32475281 C3.17873401 83.20903898 1.83417012 82.34883066 0 80 C-1.1737909 74.01590779 -0.93111042 68.085722 -0.78125 62.01171875 C-0.76948142 60.42828617 -0.76132386 58.84482249 -0.75683594 57.26135254 C-0.71496477 51.40292576 -0.60327314 45.5451661 -0.5 39.6875 C-0.335 26.590625 -0.17 13.49375 0 0 Z " fill="#D71128" transform="translate(393,593)"/>
<path d="M0 0 C0 54.12 0 108.24 0 164 C-48.51 164 -97.02 164 -147 164 C-147 137.6 -147 111.2 -147 84 C-136.605 78.06 -136.605 78.06 -126 72 C-122.09967258 69.73614023 -118.20246178 67.46885539 -114.3125 65.1875 C-102.67018831 58.37915845 -90.99093422 51.63602297 -79.30419922 44.90429688 C-75.97385748 42.98493338 -72.64490852 41.06317647 -69.31640625 39.140625 C-58.51573346 32.90287961 -47.70572442 26.68296232 -36.86816406 20.50952148 C-28.81598298 15.91349576 -20.81172638 11.23602526 -12.81591797 6.54272461 C-11.37369873 5.69786499 -11.37369873 5.69786499 -9.90234375 4.8359375 C-8.62605103 4.08642822 -8.62605103 4.08642822 -7.32397461 3.32177734 C-1.48356114 0 -1.48356114 0 0 0 Z " fill="#D61027" transform="translate(540,405)"/>
</svg>
